<?xml version="1.0" encoding="utf-8"?>
<!-- Generator: Adobe Illustrator 25.0.1, SVG Export Plug-In . SVG Version: 6.00 Build 0)  -->
<svg version="1.1" id="图层_1" xmlns="http://www.w3.org/2000/svg" xmlns:xlink="http://www.w3.org/1999/xlink" x="0px" y="0px"
	 viewBox="0 0 85.1 33.2" style="enable-background:new 0 0 85.1 33.2;" xml:space="preserve">
<image style="overflow:visible;enable-background:new    ;" width="1974" height="1701" id="图层_3" xlink:href="27E1A6379468DD86.png"  transform="matrix(1.676313e-02 0 0 1.791433e-02 1.101685e-02 0.7648)">
</image>
<image style="overflow:visible;enable-background:new    ;" width="817" height="340" id="图层_11" xlink:href="27E1A6379468DD8A.png"  transform="matrix(1.532254e-02 0 0 1.637481e-02 72.4925 26.8492)">
</image>
<image style="overflow:visible;enable-background:new    ;" width="544" height="340" id="图层_10" xlink:href="27E1A6379468DD8D.png"  transform="matrix(1.329587e-02 0 0 1.420896e-02 56.8319 27.1447)">
</image>
<image style="overflow:visible;enable-background:new    ;" width="681" height="272" id="图层_9" xlink:href="27E1A6379468DD8E.png"  transform="matrix(1.641048e-02 0 0 1.753747e-02 38.2785 27.9946)">
</image>
<image style="overflow:visible;enable-background:new    ;" width="2654" height="340" id="图层_8" xlink:href="27E1A6379468DD8C.png"  transform="matrix(1.640536e-02 0 0 1.753200e-02 39.8799 15.7158)">
</image>
<image style="overflow:visible;enable-background:new    ;" width="544" height="613" id="图层_7" xlink:href="27E1A6379468DD8B.png"  transform="matrix(1.467682e-02 0 0 1.568474e-02 64.8411 22.203)">
</image>
<image style="overflow:visible;enable-background:new    ;" width="408" height="613" id="图层_6" xlink:href="27E1A6379468DD85.png"  transform="matrix(1.488645e-02 0 0 1.590876e-02 50.4242 22.1524)">
</image>
<image style="overflow:visible;enable-background:new    ;" width="340" height="613" id="图层_5" xlink:href="27E1A6379468DD87.png"  transform="matrix(1.504767e-02 0 0 1.608106e-02 32.7445 22.0815)">
</image>
<image style="overflow:visible;enable-background:new    ;" width="408" height="544" id="图层_4" xlink:href="27E1A6379468DD84.png"  transform="matrix(1.648209e-02 0 0 1.761398e-02 32.5367 11.055)">
</image>
</svg>
